<svg aria-hidden="true" style="position: absolute; width: 0; height: 0; overflow: hidden;" version="1.1" xmlns="http://www.w3.org/2000/svg" xmlns:xlink="http://www.w3.org/1999/xlink">
    <defs>
        <symbol id="facebook-icon" viewBox="0 0 32 32">
            <path d="M30.24 0h-28.48c-0.467 0-0.914 0.185-1.244 0.515s-0.515 0.778-0.515 1.244v28.48c0 0.467 0.185 0.914 0.515 1.244s0.778 0.516 1.244 0.516h15.328v-12.4h-4.16v-4.8h4.16v-3.6c-0.086-0.845 0.014-1.699 0.292-2.502s0.73-1.534 1.321-2.144c0.592-0.61 1.309-1.083 2.103-1.386s1.644-0.429 2.492-0.368c1.245-0.008 2.49 0.056 3.728 0.192v4.32h-2.544c-2.016 0-2.4 0.96-2.4 2.352v3.088h4.8l-0.624 4.8h-4.176v12.448h8.16c0.231 0 0.46-0.046 0.674-0.134s0.408-0.218 0.571-0.382c0.164-0.163 0.293-0.357 0.382-0.571s0.134-0.442 0.134-0.674v-28.48c0-0.231-0.046-0.46-0.134-0.674s-0.218-0.408-0.382-0.571c-0.163-0.163-0.357-0.293-0.571-0.382s-0.442-0.134-0.674-0.134z"></path>
        </symbol>
        <symbol id="google-icon" viewBox="0 0 32 32">
            <path d="M1.702 8.816c1.331-2.651 3.373-4.879 5.898-6.436s5.433-2.381 8.399-2.38c4.312 0 7.934 1.586 10.704 4.168l-4.587 4.589c-1.659-1.586-3.768-2.394-6.117-2.394-4.168 0-7.696 2.816-8.952 6.597-0.32 0.96-0.502 1.984-0.502 3.040s0.182 2.080 0.502 3.040c1.258 3.782 4.784 6.597 8.952 6.597 2.152 0 3.984-0.568 5.418-1.528 0.831-0.547 1.543-1.257 2.092-2.087s0.924-1.763 1.102-2.742h-8.611v-6.189h15.069c0.189 1.046 0.291 2.138 0.291 3.272 0 4.874-1.744 8.976-4.771 11.76-2.646 2.445-6.269 3.877-10.589 3.877-2.101 0.001-4.182-0.412-6.124-1.216s-3.706-1.982-5.192-3.468c-1.486-1.486-2.664-3.25-3.468-5.192s-1.217-4.023-1.216-6.124c0-2.582 0.618-5.024 1.702-7.184z"></path>
        </symbol>
        <symbol id="twitter-icon" viewBox="0 0 41 32">
            <path d="M40.394 3.765c-1.449 0.659-3.012 1.092-4.631 1.299 1.656-0.998 2.936-2.579 3.539-4.48-1.562 0.941-3.294 1.6-5.12 1.976-1.487-1.619-3.576-2.56-5.948-2.56-4.424 0-8.038 3.614-8.038 8.075 0 0.64 0.075 1.261 0.207 1.845-6.701-0.339-12.668-3.558-16.64-8.433-0.696 1.186-1.092 2.579-1.092 4.047 0 2.805 1.412 5.289 3.595 6.701-1.336 0-2.579-0.376-3.671-0.941v0.056c0 3.915 2.786 7.191 6.475 7.925-1.184 0.324-2.428 0.369-3.633 0.132 0.511 1.605 1.513 3.009 2.863 4.015s2.982 1.564 4.666 1.595c-2.854 2.26-6.392 3.481-10.033 3.464-0.64 0-1.28-0.038-1.92-0.113 3.576 2.296 7.831 3.633 12.386 3.633 14.833 0 22.984-12.311 22.984-22.984 0-0.358 0-0.696-0.019-1.054 1.581-1.129 2.936-2.56 4.028-4.198z"></path>
        </symbol>
        <symbol id="icon-menu" viewBox="0 0 32 32">
            <path d="M29.333 24.007c0 0.733-0.595 1.327-1.327 1.327h-10.68c-0.733 0-1.327-0.594-1.327-1.327s0.594-1.327 1.327-1.327h10.68c0.733 0 1.327 0.593 1.327 1.327zM29.333 16c0 0.733-0.595 1.327-1.327 1.327h-24.013c-0.733 0-1.327-0.594-1.327-1.327s0.594-1.327 1.327-1.327h24.013c0.733 0 1.327 0.595 1.327 1.327zM28.007 9.32c0.733 0 1.327-0.594 1.327-1.327s-0.594-1.327-1.327-1.327h-16.013c-0.733 0-1.327 0.594-1.327 1.327s0.594 1.327 1.327 1.327h16.013z"></path>
        </symbol>
        <symbol id="icon-close" viewBox="0 0 24 24">
            <path stroke-linejoin="miter" stroke-linecap="round" stroke-miterlimit="4" stroke-width="2" d="M9 6l6 6 6-6M9 18l6-6 6 6"></path>
        </symbol>
    </defs>
</svg>
